<mxfile host="app.diagrams.net" modified="2021-04-25T14:04:43.778Z" agent="5.0 (Windows NT 10.0; Win64; x64) AppleWebKit/537.36 (KHTML, like Gecko) Chrome/90.0.4430.85 Safari/537.36" etag="-lqTAck3vGwpqEsmibj-" version="14.4.2" type="github">
  <diagram id="C5RBs43oDa-KdzZeNtuy" name="Page-1">
    <mxGraphModel dx="2370" dy="1270" grid="1" gridSize="10" guides="1" tooltips="1" connect="1" arrows="1" fold="1" page="1" pageScale="1" pageWidth="827" pageHeight="1169" math="0" shadow="0">
      <root>
        <mxCell id="WIyWlLk6GJQsqaUBKTNV-0" />
        <mxCell id="WIyWlLk6GJQsqaUBKTNV-1" parent="WIyWlLk6GJQsqaUBKTNV-0" />
        <mxCell id="WIyWlLk6GJQsqaUBKTNV-2" value="" style="rounded=0;html=1;jettySize=auto;orthogonalLoop=1;fontSize=11;endArrow=block;endFill=0;endSize=8;strokeWidth=1;shadow=0;labelBackgroundColor=none;edgeStyle=orthogonalEdgeStyle;entryX=0.5;entryY=0;entryDx=0;entryDy=0;" parent="WIyWlLk6GJQsqaUBKTNV-1" source="WIyWlLk6GJQsqaUBKTNV-3" target="l3Q5qu004YAobTNoqPsI-7" edge="1">
          <mxGeometry relative="1" as="geometry">
            <mxPoint x="220" y="120" as="targetPoint" />
          </mxGeometry>
        </mxCell>
        <mxCell id="WIyWlLk6GJQsqaUBKTNV-3" value="AI" style="rounded=1;whiteSpace=wrap;html=1;fontSize=12;glass=0;strokeWidth=1;shadow=0;" parent="WIyWlLk6GJQsqaUBKTNV-1" vertex="1">
          <mxGeometry x="160" y="30" width="120" height="40" as="geometry" />
        </mxCell>
        <mxCell id="WIyWlLk6GJQsqaUBKTNV-4" value="&amp;gt;= 2" style="rounded=0;html=1;jettySize=auto;orthogonalLoop=1;fontSize=11;endArrow=block;endFill=0;endSize=8;strokeWidth=1;shadow=0;labelBackgroundColor=none;edgeStyle=orthogonalEdgeStyle;entryX=0.5;entryY=0;entryDx=0;entryDy=0;" parent="WIyWlLk6GJQsqaUBKTNV-1" source="WIyWlLk6GJQsqaUBKTNV-6" target="l3Q5qu004YAobTNoqPsI-10" edge="1">
          <mxGeometry x="0.2" y="-20" relative="1" as="geometry">
            <mxPoint as="offset" />
            <mxPoint x="220" y="330" as="targetPoint" />
          </mxGeometry>
        </mxCell>
        <mxCell id="WIyWlLk6GJQsqaUBKTNV-5" value="&amp;lt; 2" style="edgeStyle=orthogonalEdgeStyle;rounded=0;html=1;jettySize=auto;orthogonalLoop=1;fontSize=11;endArrow=block;endFill=0;endSize=8;strokeWidth=1;shadow=0;labelBackgroundColor=none;entryX=0;entryY=0.5;entryDx=0;entryDy=0;" parent="WIyWlLk6GJQsqaUBKTNV-1" source="WIyWlLk6GJQsqaUBKTNV-6" target="l3Q5qu004YAobTNoqPsI-4" edge="1">
          <mxGeometry y="10" relative="1" as="geometry">
            <mxPoint as="offset" />
            <mxPoint x="350" y="210" as="targetPoint" />
          </mxGeometry>
        </mxCell>
        <mxCell id="WIyWlLk6GJQsqaUBKTNV-6" value="Pawn out of barn and ladder ?" style="rhombus;whiteSpace=wrap;html=1;shadow=0;fontFamily=Helvetica;fontSize=12;align=center;strokeWidth=1;spacing=6;spacingTop=-4;" parent="WIyWlLk6GJQsqaUBKTNV-1" vertex="1">
          <mxGeometry x="160" y="160" width="120" height="100" as="geometry" />
        </mxCell>
        <mxCell id="l3Q5qu004YAobTNoqPsI-2" value="Yes" style="edgeStyle=orthogonalEdgeStyle;rounded=0;orthogonalLoop=1;jettySize=auto;html=1;" edge="1" parent="WIyWlLk6GJQsqaUBKTNV-1" source="l3Q5qu004YAobTNoqPsI-0" target="l3Q5qu004YAobTNoqPsI-1">
          <mxGeometry relative="1" as="geometry" />
        </mxCell>
        <mxCell id="l3Q5qu004YAobTNoqPsI-9" value="No" style="edgeStyle=orthogonalEdgeStyle;rounded=0;orthogonalLoop=1;jettySize=auto;html=1;exitX=0.5;exitY=1;exitDx=0;exitDy=0;" edge="1" parent="WIyWlLk6GJQsqaUBKTNV-1" source="l3Q5qu004YAobTNoqPsI-0">
          <mxGeometry relative="1" as="geometry">
            <mxPoint x="220" y="310" as="targetPoint" />
            <Array as="points">
              <mxPoint x="560" y="310" />
            </Array>
          </mxGeometry>
        </mxCell>
        <mxCell id="l3Q5qu004YAobTNoqPsI-0" value="Made a 6 ?" style="rhombus;whiteSpace=wrap;html=1;shadow=0;fontFamily=Helvetica;fontSize=12;align=center;strokeWidth=1;spacing=6;spacingTop=-4;" vertex="1" parent="WIyWlLk6GJQsqaUBKTNV-1">
          <mxGeometry x="500" y="160" width="120" height="100" as="geometry" />
        </mxCell>
        <mxCell id="l3Q5qu004YAobTNoqPsI-3" style="edgeStyle=orthogonalEdgeStyle;rounded=0;orthogonalLoop=1;jettySize=auto;html=1;exitX=0.5;exitY=0;exitDx=0;exitDy=0;entryX=1;entryY=0.5;entryDx=0;entryDy=0;" edge="1" parent="WIyWlLk6GJQsqaUBKTNV-1" source="l3Q5qu004YAobTNoqPsI-1" target="WIyWlLk6GJQsqaUBKTNV-3">
          <mxGeometry relative="1" as="geometry" />
        </mxCell>
        <mxCell id="l3Q5qu004YAobTNoqPsI-1" value="Get a pawn out of barn" style="rounded=1;whiteSpace=wrap;html=1;" vertex="1" parent="WIyWlLk6GJQsqaUBKTNV-1">
          <mxGeometry x="690" y="195" width="120" height="30" as="geometry" />
        </mxCell>
        <mxCell id="l3Q5qu004YAobTNoqPsI-5" value="&amp;lt; 3" style="edgeStyle=orthogonalEdgeStyle;rounded=0;orthogonalLoop=1;jettySize=auto;html=1;exitX=1;exitY=0.5;exitDx=0;exitDy=0;entryX=0;entryY=0.5;entryDx=0;entryDy=0;" edge="1" parent="WIyWlLk6GJQsqaUBKTNV-1" source="l3Q5qu004YAobTNoqPsI-4" target="l3Q5qu004YAobTNoqPsI-0">
          <mxGeometry relative="1" as="geometry" />
        </mxCell>
        <mxCell id="l3Q5qu004YAobTNoqPsI-6" value="&amp;gt;= 3" style="edgeStyle=orthogonalEdgeStyle;rounded=0;orthogonalLoop=1;jettySize=auto;html=1;exitX=0.5;exitY=1;exitDx=0;exitDy=0;" edge="1" parent="WIyWlLk6GJQsqaUBKTNV-1" source="l3Q5qu004YAobTNoqPsI-4">
          <mxGeometry relative="1" as="geometry">
            <mxPoint x="220" y="290" as="targetPoint" />
            <Array as="points">
              <mxPoint x="390" y="290" />
            </Array>
          </mxGeometry>
        </mxCell>
        <mxCell id="l3Q5qu004YAobTNoqPsI-4" value="Pawn in ladder ?" style="rhombus;whiteSpace=wrap;html=1;shadow=0;fontFamily=Helvetica;fontSize=12;align=center;strokeWidth=1;spacing=6;spacingTop=-4;" vertex="1" parent="WIyWlLk6GJQsqaUBKTNV-1">
          <mxGeometry x="330" y="160" width="120" height="100" as="geometry" />
        </mxCell>
        <mxCell id="l3Q5qu004YAobTNoqPsI-8" style="edgeStyle=orthogonalEdgeStyle;rounded=0;orthogonalLoop=1;jettySize=auto;html=1;exitX=0.5;exitY=1;exitDx=0;exitDy=0;entryX=0.5;entryY=0;entryDx=0;entryDy=0;" edge="1" parent="WIyWlLk6GJQsqaUBKTNV-1" source="l3Q5qu004YAobTNoqPsI-7" target="WIyWlLk6GJQsqaUBKTNV-6">
          <mxGeometry relative="1" as="geometry" />
        </mxCell>
        <mxCell id="l3Q5qu004YAobTNoqPsI-7" value="Roll a die" style="shape=parallelogram;html=1;strokeWidth=2;perimeter=parallelogramPerimeter;whiteSpace=wrap;rounded=1;arcSize=12;size=0.23;" vertex="1" parent="WIyWlLk6GJQsqaUBKTNV-1">
          <mxGeometry x="150" y="100" width="140" height="40" as="geometry" />
        </mxCell>
        <mxCell id="l3Q5qu004YAobTNoqPsI-12" value="Yes" style="edgeStyle=orthogonalEdgeStyle;rounded=0;orthogonalLoop=1;jettySize=auto;html=1;exitX=1;exitY=0.5;exitDx=0;exitDy=0;entryX=0;entryY=0.5;entryDx=0;entryDy=0;" edge="1" parent="WIyWlLk6GJQsqaUBKTNV-1" source="l3Q5qu004YAobTNoqPsI-10" target="l3Q5qu004YAobTNoqPsI-11">
          <mxGeometry relative="1" as="geometry" />
        </mxCell>
        <mxCell id="l3Q5qu004YAobTNoqPsI-13" value="No" style="edgeStyle=orthogonalEdgeStyle;rounded=0;orthogonalLoop=1;jettySize=auto;html=1;exitX=0.5;exitY=1;exitDx=0;exitDy=0;entryX=0.5;entryY=0;entryDx=0;entryDy=0;" edge="1" parent="WIyWlLk6GJQsqaUBKTNV-1" source="l3Q5qu004YAobTNoqPsI-10" target="l3Q5qu004YAobTNoqPsI-14">
          <mxGeometry relative="1" as="geometry">
            <mxPoint x="219.68965517241372" y="480.0000000000001" as="targetPoint" />
          </mxGeometry>
        </mxCell>
        <mxCell id="l3Q5qu004YAobTNoqPsI-10" value="Can put a horse in the ladder ?" style="rhombus;whiteSpace=wrap;html=1;shadow=0;fontFamily=Helvetica;fontSize=12;align=center;strokeWidth=1;spacing=6;spacingTop=-4;" vertex="1" parent="WIyWlLk6GJQsqaUBKTNV-1">
          <mxGeometry x="140" y="340" width="160" height="90" as="geometry" />
        </mxCell>
        <mxCell id="l3Q5qu004YAobTNoqPsI-33" style="edgeStyle=orthogonalEdgeStyle;rounded=0;orthogonalLoop=1;jettySize=auto;html=1;exitX=1;exitY=0.5;exitDx=0;exitDy=0;" edge="1" parent="WIyWlLk6GJQsqaUBKTNV-1" source="l3Q5qu004YAobTNoqPsI-11">
          <mxGeometry relative="1" as="geometry">
            <mxPoint x="720" y="790" as="targetPoint" />
            <Array as="points">
              <mxPoint x="720" y="385" />
              <mxPoint x="720" y="790" />
            </Array>
          </mxGeometry>
        </mxCell>
        <mxCell id="l3Q5qu004YAobTNoqPsI-11" value="Get the pawn in the end" style="rounded=1;whiteSpace=wrap;html=1;" vertex="1" parent="WIyWlLk6GJQsqaUBKTNV-1">
          <mxGeometry x="430" y="370" width="146" height="30" as="geometry" />
        </mxCell>
        <mxCell id="l3Q5qu004YAobTNoqPsI-15" value="Yes" style="edgeStyle=orthogonalEdgeStyle;rounded=0;orthogonalLoop=1;jettySize=auto;html=1;exitX=1;exitY=0.5;exitDx=0;exitDy=0;entryX=0;entryY=0.5;entryDx=0;entryDy=0;" edge="1" parent="WIyWlLk6GJQsqaUBKTNV-1" source="l3Q5qu004YAobTNoqPsI-14" target="l3Q5qu004YAobTNoqPsI-16">
          <mxGeometry relative="1" as="geometry">
            <mxPoint x="430" y="515" as="targetPoint" />
          </mxGeometry>
        </mxCell>
        <mxCell id="l3Q5qu004YAobTNoqPsI-17" value="No" style="edgeStyle=orthogonalEdgeStyle;rounded=0;orthogonalLoop=1;jettySize=auto;html=1;exitX=0.5;exitY=1;exitDx=0;exitDy=0;entryX=0.5;entryY=0;entryDx=0;entryDy=0;" edge="1" parent="WIyWlLk6GJQsqaUBKTNV-1" source="l3Q5qu004YAobTNoqPsI-14" target="l3Q5qu004YAobTNoqPsI-18">
          <mxGeometry relative="1" as="geometry">
            <mxPoint x="219.68965517241372" y="620" as="targetPoint" />
          </mxGeometry>
        </mxCell>
        <mxCell id="l3Q5qu004YAobTNoqPsI-14" value="Can put a horse on &lt;br&gt;a safe case or make a block ?" style="rhombus;whiteSpace=wrap;html=1;shadow=0;fontFamily=Helvetica;fontSize=12;align=center;strokeWidth=1;spacing=6;spacingTop=-4;" vertex="1" parent="WIyWlLk6GJQsqaUBKTNV-1">
          <mxGeometry x="110" y="470" width="220" height="90" as="geometry" />
        </mxCell>
        <mxCell id="l3Q5qu004YAobTNoqPsI-32" style="edgeStyle=orthogonalEdgeStyle;rounded=0;orthogonalLoop=1;jettySize=auto;html=1;exitX=1;exitY=0.5;exitDx=0;exitDy=0;" edge="1" parent="WIyWlLk6GJQsqaUBKTNV-1" source="l3Q5qu004YAobTNoqPsI-16">
          <mxGeometry relative="1" as="geometry">
            <mxPoint x="690" y="790" as="targetPoint" />
          </mxGeometry>
        </mxCell>
        <mxCell id="l3Q5qu004YAobTNoqPsI-16" value="Get the pawn on the safe case" style="rounded=1;whiteSpace=wrap;html=1;" vertex="1" parent="WIyWlLk6GJQsqaUBKTNV-1">
          <mxGeometry x="430" y="500" width="180" height="30" as="geometry" />
        </mxCell>
        <mxCell id="l3Q5qu004YAobTNoqPsI-20" value="Yes" style="edgeStyle=orthogonalEdgeStyle;rounded=0;orthogonalLoop=1;jettySize=auto;html=1;exitX=1;exitY=0.5;exitDx=0;exitDy=0;entryX=0;entryY=0.5;entryDx=0;entryDy=0;" edge="1" parent="WIyWlLk6GJQsqaUBKTNV-1" source="l3Q5qu004YAobTNoqPsI-18" target="l3Q5qu004YAobTNoqPsI-21">
          <mxGeometry relative="1" as="geometry">
            <mxPoint x="420" y="649.8620689655172" as="targetPoint" />
          </mxGeometry>
        </mxCell>
        <mxCell id="l3Q5qu004YAobTNoqPsI-22" value="No" style="edgeStyle=orthogonalEdgeStyle;rounded=0;orthogonalLoop=1;jettySize=auto;html=1;exitX=0.5;exitY=1;exitDx=0;exitDy=0;entryX=0.5;entryY=0;entryDx=0;entryDy=0;" edge="1" parent="WIyWlLk6GJQsqaUBKTNV-1" source="l3Q5qu004YAobTNoqPsI-18" target="l3Q5qu004YAobTNoqPsI-23">
          <mxGeometry relative="1" as="geometry">
            <mxPoint x="219.68965517241372" y="740" as="targetPoint" />
          </mxGeometry>
        </mxCell>
        <mxCell id="l3Q5qu004YAobTNoqPsI-18" value="Can eat a pawn ?" style="rhombus;whiteSpace=wrap;html=1;shadow=0;fontFamily=Helvetica;fontSize=12;align=center;strokeWidth=1;spacing=6;spacingTop=-4;" vertex="1" parent="WIyWlLk6GJQsqaUBKTNV-1">
          <mxGeometry x="150" y="610" width="140" height="80" as="geometry" />
        </mxCell>
        <mxCell id="l3Q5qu004YAobTNoqPsI-31" style="edgeStyle=orthogonalEdgeStyle;rounded=0;orthogonalLoop=1;jettySize=auto;html=1;exitX=1;exitY=0.5;exitDx=0;exitDy=0;" edge="1" parent="WIyWlLk6GJQsqaUBKTNV-1" source="l3Q5qu004YAobTNoqPsI-21">
          <mxGeometry relative="1" as="geometry">
            <mxPoint x="660" y="790" as="targetPoint" />
          </mxGeometry>
        </mxCell>
        <mxCell id="l3Q5qu004YAobTNoqPsI-21" value="Eat a pawn" style="rounded=1;whiteSpace=wrap;html=1;" vertex="1" parent="WIyWlLk6GJQsqaUBKTNV-1">
          <mxGeometry x="430" y="635" width="100" height="30" as="geometry" />
        </mxCell>
        <mxCell id="l3Q5qu004YAobTNoqPsI-25" value="Yes" style="edgeStyle=orthogonalEdgeStyle;rounded=0;orthogonalLoop=1;jettySize=auto;html=1;exitX=1;exitY=0.5;exitDx=0;exitDy=0;" edge="1" parent="WIyWlLk6GJQsqaUBKTNV-1" source="l3Q5qu004YAobTNoqPsI-23">
          <mxGeometry relative="1" as="geometry">
            <mxPoint x="430" y="789.8620689655172" as="targetPoint" />
          </mxGeometry>
        </mxCell>
        <mxCell id="l3Q5qu004YAobTNoqPsI-27" value="No" style="edgeStyle=orthogonalEdgeStyle;rounded=0;orthogonalLoop=1;jettySize=auto;html=1;exitX=0.5;exitY=1;exitDx=0;exitDy=0;entryX=0.5;entryY=0;entryDx=0;entryDy=0;" edge="1" parent="WIyWlLk6GJQsqaUBKTNV-1" source="l3Q5qu004YAobTNoqPsI-23" target="l3Q5qu004YAobTNoqPsI-28">
          <mxGeometry relative="1" as="geometry">
            <mxPoint x="219.68965517241372" y="890" as="targetPoint" />
          </mxGeometry>
        </mxCell>
        <mxCell id="l3Q5qu004YAobTNoqPsI-23" value="Can make an action ?" style="rhombus;whiteSpace=wrap;html=1;shadow=0;fontFamily=Helvetica;fontSize=12;align=center;strokeWidth=1;spacing=6;spacingTop=-4;" vertex="1" parent="WIyWlLk6GJQsqaUBKTNV-1">
          <mxGeometry x="145" y="750" width="150" height="80" as="geometry" />
        </mxCell>
        <mxCell id="l3Q5qu004YAobTNoqPsI-30" style="edgeStyle=orthogonalEdgeStyle;rounded=0;orthogonalLoop=1;jettySize=auto;html=1;exitX=1;exitY=0.5;exitDx=0;exitDy=0;entryX=0;entryY=0.5;entryDx=0;entryDy=0;" edge="1" parent="WIyWlLk6GJQsqaUBKTNV-1" source="l3Q5qu004YAobTNoqPsI-26" target="l3Q5qu004YAobTNoqPsI-29">
          <mxGeometry relative="1" as="geometry" />
        </mxCell>
        <mxCell id="l3Q5qu004YAobTNoqPsI-26" value="Move the pawn on the case with the biggest value" style="rounded=1;whiteSpace=wrap;html=1;" vertex="1" parent="WIyWlLk6GJQsqaUBKTNV-1">
          <mxGeometry x="430" y="775" width="190" height="30" as="geometry" />
        </mxCell>
        <mxCell id="l3Q5qu004YAobTNoqPsI-28" value="End of AI turn" style="rounded=1;whiteSpace=wrap;html=1;" vertex="1" parent="WIyWlLk6GJQsqaUBKTNV-1">
          <mxGeometry x="160" y="910" width="120" height="30" as="geometry" />
        </mxCell>
        <mxCell id="l3Q5qu004YAobTNoqPsI-34" value="Yes" style="edgeStyle=orthogonalEdgeStyle;rounded=0;orthogonalLoop=1;jettySize=auto;html=1;exitX=0.5;exitY=0;exitDx=0;exitDy=0;" edge="1" parent="WIyWlLk6GJQsqaUBKTNV-1" source="l3Q5qu004YAobTNoqPsI-29">
          <mxGeometry x="-0.9439" relative="1" as="geometry">
            <mxPoint x="750" y="60" as="targetPoint" />
            <Array as="points">
              <mxPoint x="865" y="60" />
            </Array>
            <mxPoint as="offset" />
          </mxGeometry>
        </mxCell>
        <mxCell id="l3Q5qu004YAobTNoqPsI-35" value="No" style="edgeStyle=orthogonalEdgeStyle;rounded=0;orthogonalLoop=1;jettySize=auto;html=1;exitX=0.5;exitY=1;exitDx=0;exitDy=0;" edge="1" parent="WIyWlLk6GJQsqaUBKTNV-1" source="l3Q5qu004YAobTNoqPsI-29">
          <mxGeometry x="-0.9333" relative="1" as="geometry">
            <mxPoint x="220" y="860" as="targetPoint" />
            <Array as="points">
              <mxPoint x="865" y="860" />
            </Array>
            <mxPoint as="offset" />
          </mxGeometry>
        </mxCell>
        <mxCell id="l3Q5qu004YAobTNoqPsI-29" value="Made a 6 ?" style="rhombus;whiteSpace=wrap;html=1;shadow=0;fontFamily=Helvetica;fontSize=12;align=center;strokeWidth=1;spacing=6;spacingTop=-4;" vertex="1" parent="WIyWlLk6GJQsqaUBKTNV-1">
          <mxGeometry x="810" y="765" width="110" height="50" as="geometry" />
        </mxCell>
      </root>
    </mxGraphModel>
  </diagram>
</mxfile>
